<?xml version="1.0" encoding="utf-8"?>
<!-- Generator: Adobe Illustrator 23.0.6, SVG Export Plug-In . SVG Version: 6.00 Build 0)  -->
<svg version="1.1" id="home" xmlns="http://www.w3.org/2000/svg" xmlns:xlink="http://www.w3.org/1999/xlink" x="0px" y="0px"
	 viewBox="0 0 175.8 36.1" style="enable-background:new 0 0 175.8 36.1;" xml:space="preserve">
<style type="text/css">
	.st0{fill:#8A8E9D;}
	.st1{fill:#FFFFFF;}
	.st2{fill-rule:evenodd;clip-rule:evenodd;fill:#FFFFFF;}
	.st3{fill:#6D7284;}
	.st4{font-family:'Arial-BoldMT';}
	.st5{font-size:23px;}
</style>
<g id="layer1" transform="translate(0,703)">
	<ellipse id="path1248" class="st0" cx="20.9" cy="-684.7" rx="17.2" ry="17.1"/>
	<ellipse id="path1202" class="st1" cx="21" cy="-684.7" rx="14.6" ry="14.3"/>
	<ellipse id="path1206" class="st0" cx="21" cy="-684.6" rx="13.8" ry="13.6"/>
	<g id="g1246" transform="matrix(7.6031716,0,0,8.5413823,314.96366,-412.81963)">
		<g id="g1210" transform="matrix(0.721351,0,0,0.811444,6.54562,5.10326)">
			<path id="path1208" class="st2" d="M-62.5-46.2C-62.5-46.3-62.6-46.3-62.5-46.2C-62.6-46.3-62.6-46.3-62.5-46.2
				c-0.1-0.1-0.2,0-0.2,0c0,0.3,0,1.3,0,1.6c0,0,0,0.1,0.1,0.1c0,0,0,0,0,0c0,0,0.1,0,0.1-0.1C-62.5-44.9-62.5-46-62.5-46.2
				L-62.5-46.2z"/>
		</g>
		<g id="g1214" transform="matrix(5.99295e-4,-0.721351,0.258566,2.14816e-4,18.4279,54.7844)">
			<path id="path1212" class="st2" d="M119.3-221.6c0-0.1,0-0.2-0.1-0.2c0,0,0,0,0,0c0,0-0.1,0.1-0.1,0.2c0,0.3,0,1,0,1.3
				c0,0.1,0,0.2,0.1,0.2c0,0,0,0,0,0c0,0,0.1-0.1,0.1-0.2C119.3-220.6,119.3-221.2,119.3-221.6z"/>
		</g>
		<g id="g1218" transform="matrix(5.99295e-4,-0.721351,0.579332,4.81307e-4,10.2753,38.6396)">
			<path id="path1216" class="st2" d="M98-85.3C98-85.3,97.9-85.4,98-85.3C97.9-85.4,97.9-85.4,98-85.3c-0.1-0.1-0.2-0.1-0.2,0
				c0,0.3,0,1.3,0,1.6c0,0.1,0,0.1,0.1,0.1c0,0,0,0,0,0c0,0,0.1,0,0.1-0.1C98-84,98-85,98-85.3L98-85.3z"/>
		</g>
		<g id="g1222" transform="matrix(0.509521,-0.510622,0.393855,0.393005,1.94156,23.2426)">
			<path id="path1220" class="st2" d="M14.6-122.5c0-0.1,0-0.1-0.1-0.1c0,0,0,0,0,0c0,0-0.1,0-0.1,0.1c0,0.3,0,1.2,0,1.6
				c0,0.1,0,0.1,0.1,0.1c0,0,0,0,0,0c0,0,0.1,0,0.1-0.1C14.6-121.3,14.6-122.2,14.6-122.5z"/>
		</g>
		<g id="g1226" transform="matrix(-0.51096,-0.509182,0.392744,-0.394115,28.1955,43.2602)">
			<path id="path1224" class="st2" d="M139.4,10.3c0-0.1,0-0.1-0.1-0.1c0,0,0,0,0,0c0,0-0.1,0-0.1,0.1c0,0.3,0,1.2,0,1.6
				c0,0.1,0,0.1,0.1,0.1c0,0,0,0,0,0c0,0,0.1,0,0.1-0.1C139.4,11.5,139.4,10.6,139.4,10.3z"/>
		</g>
	</g>
</g>
<text transform="matrix(1 0 0 1 46.3558 26.501)" class="st3 st4 st5">JUNOSCAN</text>
</svg>
