<svg id="home" xmlns="http://www.w3.org/2000/svg" viewBox="0 0 171.75 64.68"><defs><style>.cls-1{fill:#f0827d;}.cls-2,.cls-3{fill:#fff;}.cls-3{fill-rule:evenodd;}.cls-4{font-size:23px;fill:#6d7284;font-family:Arial-BoldMT, Arial;font-weight:700;}</style></defs><title>big-dipper-red</title><g id="layer1"><ellipse id="path1248" class="cls-1" cx="17.24" cy="17.08" rx="17.24" ry="17.08"/><ellipse id="path1202" class="cls-2" cx="17.29" cy="17.07" rx="14.64" ry="14.32"/><ellipse id="path1206" class="cls-1" cx="17.33" cy="17.15" rx="13.81" ry="13.56"/><g id="g1246"><g id="g1210"><path id="path1208" class="cls-3" d="M21.77,13.3a.45.45,0,0,0-.43-.48h0a.45.45,0,0,0-.43.48V24.53a.46.46,0,0,0,.43.49h0a.46.46,0,0,0,.43-.49V13.3Z" transform="translate(-3.68 -1.27)"/></g><g id="g1214"><path id="path1212" class="cls-3" d="M20,22.56a.45.45,0,0,0-.43.48h0a.46.46,0,0,0,.43.49h2.59a.47.47,0,0,0,.43-.48h0a.46.46,0,0,0-.43-.49Z" transform="translate(-3.68 -1.27)"/></g><g id="g1218"><path id="path1216" class="cls-3" d="M17.89,16.19a.47.47,0,0,0-.43.49h0a.47.47,0,0,0,.43.49h6.87a.46.46,0,0,0,.44-.48h0a.47.47,0,0,0-.43-.49Z" transform="translate(-3.68 -1.27)"/></g><g id="g1222"><path id="path1220" class="cls-3" d="M19.32,13.74a.4.4,0,0,0-.61,0h0a.53.53,0,0,0,0,.69l4.64,5.22a.41.41,0,0,0,.62,0h0A.54.54,0,0,0,24,19Z" transform="translate(-3.68 -1.27)"/></g><g id="g1226"><path id="path1224" class="cls-3" d="M18.71,19a.56.56,0,0,0,0,.69h0a.4.4,0,0,0,.61,0L24,14.42a.53.53,0,0,0,0-.69h0a.4.4,0,0,0-.61,0Z" transform="translate(-3.68 -1.27)"/></g></g></g><text class="cls-4" transform="translate(42.68 25.23)">JUNOSCAN</text><text x="-3.68" y="-1.27"/></svg>